<svg xmlns="http://www.w3.org/2000/svg" width="32" height="32" viewBox="0 0 32 32"><path style="line-height:normal;text-indent:0;text-align:start;text-decoration-line:none;text-decoration-style:solid;text-decoration-color:#000;text-transform:none;block-progression:tb;white-space:normal;isolation:auto;mix-blend-mode:normal;solid-color:#000;solid-opacity:1" d="M 5.9902344 12 C 5.7721252 12.0007 5.6168328 12.097347 5.5078125 12.185547 C 5.3987921 12.273547 5.3200938 12.368803 5.2441406 12.470703 C 5.092233 12.674403 4.9606769 12.909831 4.8339844 13.144531 C 4.7072926 13.379331 4.5884149 13.612416 4.4863281 13.791016 C 4.384242 13.969516 4.2514746 14.100075 4.3242188 14.046875 C 4.3969618 13.993875 4.2323133 14.080047 4.03125 14.123047 C 3.8301871 14.166047 3.5707261 14.209866 3.3085938 14.259766 C 3.0464613 14.309766 2.783138 14.362313 2.5429688 14.445312 C 2.4228841 14.487312 2.3085512 14.534328 2.1914062 14.611328 C 2.0742613 14.688328 1.935894 14.805972 1.8691406 15.013672 C 1.8023876 15.221272 1.8442863 15.398297 1.8945312 15.529297 C 1.9447763 15.660197 2.0125386 15.765441 2.0859375 15.869141 C 2.2327353 16.076541 2.4135201 16.273797 2.5976562 16.466797 C 2.7817923 16.659897 2.9691868 16.845847 3.1074219 16.998047 C 3.2456569 17.150347 3.3288969 17.318022 3.3007812 17.232422 C 3.2726653 17.146422 3.302313 17.328103 3.28125 17.533203 C 3.260182 17.737703 3.2233081 17.999072 3.1894531 18.263672 C 3.1555981 18.528372 3.1241662 18.794728 3.1289062 19.048828 C 3.1312762 19.175828 3.1405664 19.300347 3.1777344 19.435547 C 3.2149024 19.570847 3.2840846 19.737634 3.4609375 19.865234 C 3.6377904 19.992934 3.8189115 20.005347 3.9589844 19.998047 C 4.0990579 19.988047 4.22048 19.961828 4.3417969 19.923828 C 4.58443 19.847828 4.8278648 19.736594 5.0683594 19.621094 C 5.308854 19.505694 5.5429483 19.385281 5.7304688 19.300781 C 5.9179886 19.216781 6.1037928 19.1872 6.0136719 19.1875 C 5.9235509 19.1878 6.1068788 19.215428 6.2949219 19.298828 C 6.4829647 19.381828 6.7177757 19.499381 6.9589844 19.613281 C 7.2001937 19.727281 7.444401 19.838109 7.6875 19.912109 C 7.8090492 19.949109 7.9301966 19.979328 8.0703125 19.986328 C 8.210429 19.996328 8.3923044 19.976662 8.5683594 19.851562 C 8.7444138 19.722763 8.8113313 19.553469 8.8476562 19.417969 C 8.8839812 19.282469 8.8929522 19.15835 8.8945312 19.03125 C 8.8976912 18.77715 8.8655801 18.510594 8.8300781 18.246094 C 8.7945761 17.981694 8.7547629 17.721978 8.7324219 17.517578 C 8.7100809 17.313078 8.7385155 17.129044 8.7109375 17.214844 C 8.6833555 17.300844 8.7670134 17.133169 8.9042969 16.980469 C 9.0415808 16.827369 9.2272266 16.639513 9.4101562 16.445312 C 9.5930866 16.251113 9.7724657 16.054103 9.9179688 15.845703 C 9.9907207 15.741603 10.056041 15.635206 10.105469 15.503906 C 10.154899 15.372606 10.198909 15.195481 10.130859 14.988281 C 10.062809 14.780981 9.9223109 14.664291 9.8046875 14.587891 C 9.6870642 14.511891 9.5734656 14.464628 9.453125 14.423828 C 9.2124431 14.341828 8.9479834 14.292141 8.6855469 14.244141 C 8.423111 14.196141 8.1642184 14.152728 7.9628906 14.111328 C 7.7615628 14.069328 7.5968474 13.984309 7.6699219 14.037109 C 7.7429959 14.090109 7.6090558 13.95875 7.5058594 13.78125 C 7.4026636 13.60335 7.2804956 13.370719 7.1523438 13.136719 C 7.0241919 12.902819 6.8934075 12.669597 6.7402344 12.466797 C 6.6636474 12.365397 6.5822245 12.269241 6.4726562 12.181641 C 6.3630885 12.093641 6.208343 11.9993 5.9902344 12 z M 15.990234 12 C 15.772125 12.0007 15.616833 12.097347 15.507812 12.185547 C 15.398793 12.273547 15.320094 12.368803 15.244141 12.470703 C 15.092233 12.674403 14.960677 12.909831 14.833984 13.144531 C 14.707293 13.379331 14.588415 13.612416 14.486328 13.791016 C 14.384242 13.969516 14.251475 14.100075 14.324219 14.046875 C 14.396959 13.993875 14.232314 14.080047 14.03125 14.123047 C 13.830187 14.166047 13.570726 14.209866 13.308594 14.259766 C 13.046461 14.309766 12.783138 14.362313 12.542969 14.445312 C 12.422884 14.487312 12.308551 14.534328 12.191406 14.611328 C 12.074261 14.688328 11.935895 14.805972 11.869141 15.013672 C 11.802391 15.221272 11.844281 15.398297 11.894531 15.529297 C 11.944781 15.660197 12.012539 15.765441 12.085938 15.869141 C 12.232736 16.076541 12.41352 16.273797 12.597656 16.466797 C 12.781792 16.659897 12.969187 16.845847 13.107422 16.998047 C 13.245657 17.150347 13.328896 17.318022 13.300781 17.232422 C 13.272661 17.146422 13.30235 17.328103 13.28125 17.533203 C 13.26018 17.737703 13.223313 17.999072 13.189453 18.263672 C 13.155593 18.528372 13.124166 18.794728 13.128906 19.048828 C 13.131306 19.175828 13.140564 19.300347 13.177734 19.435547 C 13.214904 19.570847 13.284085 19.737634 13.460938 19.865234 C 13.63779 19.992934 13.818911 20.005347 13.958984 19.998047 C 14.099058 19.988047 14.22048 19.961828 14.341797 19.923828 C 14.58443 19.847828 14.827865 19.736594 15.068359 19.621094 C 15.308854 19.505694 15.542948 19.385281 15.730469 19.300781 C 15.917988 19.216781 16.103793 19.1872 16.013672 19.1875 C 15.923552 19.1878 16.106878 19.215428 16.294922 19.298828 C 16.482965 19.381828 16.717775 19.499381 16.958984 19.613281 C 17.200193 19.727281 17.444401 19.838109 17.6875 19.912109 C 17.809049 19.949109 17.930196 19.979328 18.070312 19.986328 C 18.210428 19.996328 18.392304 19.976662 18.568359 19.851562 C 18.744413 19.722763 18.811331 19.553469 18.847656 19.417969 C 18.883976 19.282469 18.892951 19.15835 18.894531 19.03125 C 18.897731 18.77715 18.865578 18.510594 18.830078 18.246094 C 18.794578 17.981694 18.754762 17.721978 18.732422 17.517578 C 18.710082 17.313078 18.738568 17.129044 18.710938 17.214844 C 18.683357 17.300844 18.767014 17.133169 18.904297 16.980469 C 19.041581 16.827369 19.227226 16.639513 19.410156 16.445312 C 19.593086 16.251113 19.772466 16.054103 19.917969 15.845703 C 19.990719 15.741603 20.056041 15.635206 20.105469 15.503906 C 20.154899 15.372606 20.198909 15.195481 20.130859 14.988281 C 20.062809 14.780981 19.92231 14.664291 19.804688 14.587891 C 19.687065 14.511891 19.573466 14.464628 19.453125 14.423828 C 19.212443 14.341828 18.947984 14.292141 18.685547 14.244141 C 18.423111 14.196141 18.164219 14.152728 17.962891 14.111328 C 17.761563 14.069328 17.596847 13.984309 17.669922 14.037109 C 17.742992 14.090109 17.60906 13.95875 17.505859 13.78125 C 17.402664 13.60335 17.280496 13.370719 17.152344 13.136719 C 17.024192 12.902819 16.893407 12.669597 16.740234 12.466797 C 16.663644 12.365397 16.582224 12.269241 16.472656 12.181641 C 16.363088 12.093641 16.208343 11.9993 15.990234 12 z M 25.990234 12 C 25.772125 12.0007 25.616833 12.097347 25.507812 12.185547 C 25.398792 12.273547 25.320094 12.368803 25.244141 12.470703 C 25.092233 12.674403 24.960677 12.909831 24.833984 13.144531 C 24.707293 13.379331 24.588415 13.612416 24.486328 13.791016 C 24.384242 13.969516 24.251475 14.100075 24.324219 14.046875 C 24.396959 13.993875 24.232314 14.080047 24.03125 14.123047 C 23.830187 14.166047 23.570726 14.209866 23.308594 14.259766 C 23.046461 14.309766 22.783138 14.362313 22.542969 14.445312 C 22.422884 14.487312 22.308551 14.534328 22.191406 14.611328 C 22.074261 14.688328 21.935895 14.805972 21.869141 15.013672 C 21.802391 15.221272 21.844281 15.398297 21.894531 15.529297 C 21.944781 15.660197 22.012538 15.765441 22.085938 15.869141 C 22.232736 16.076541 22.41352 16.273797 22.597656 16.466797 C 22.781792 16.659897 22.969187 16.845847 23.107422 16.998047 C 23.245657 17.150347 23.328896 17.318022 23.300781 17.232422 C 23.272661 17.146422 23.30235 17.328103 23.28125 17.533203 C 23.26018 17.737703 23.223313 17.999072 23.189453 18.263672 C 23.155603 18.528372 23.124166 18.794728 23.128906 19.048828 C 23.131306 19.175828 23.140564 19.300347 23.177734 19.435547 C 23.214904 19.570847 23.284084 19.737634 23.460938 19.865234 C 23.637791 19.992934 23.818911 20.005347 23.958984 19.998047 C 24.099058 19.988047 24.22048 19.961828 24.341797 19.923828 C 24.58443 19.847828 24.827865 19.736594 25.068359 19.621094 C 25.308854 19.505694 25.542948 19.385281 25.730469 19.300781 C 25.917988 19.216781 26.103793 19.1872 26.013672 19.1875 C 25.923552 19.1878 26.106878 19.215428 26.294922 19.298828 C 26.482965 19.381828 26.717775 19.499381 26.958984 19.613281 C 27.200193 19.727281 27.444401 19.838109 27.6875 19.912109 C 27.809049 19.949109 27.930196 19.979328 28.070312 19.986328 C 28.210428 19.996328 28.392304 19.976662 28.568359 19.851562 C 28.744413 19.722763 28.811331 19.553469 28.847656 19.417969 C 28.883976 19.282469 28.892951 19.15835 28.894531 19.03125 C 28.897731 18.77715 28.865578 18.510594 28.830078 18.246094 C 28.794578 17.981694 28.754762 17.721978 28.732422 17.517578 C 28.710082 17.313078 28.738568 17.129044 28.710938 17.214844 C 28.683357 17.300844 28.767014 17.133169 28.904297 16.980469 C 29.041581 16.827369 29.227226 16.639513 29.410156 16.445312 C 29.593086 16.251113 29.772466 16.054103 29.917969 15.845703 C 29.990719 15.741603 30.056041 15.635206 30.105469 15.503906 C 30.154899 15.372606 30.198909 15.195481 30.130859 14.988281 C 30.062809 14.780981 29.922311 14.664291 29.804688 14.587891 C 29.687065 14.511891 29.573466 14.464628 29.453125 14.423828 C 29.212443 14.341828 28.947984 14.292141 28.685547 14.244141 C 28.423111 14.196141 28.164219 14.152728 27.962891 14.111328 C 27.761563 14.069328 27.596847 13.984309 27.669922 14.037109 C 27.742992 14.090109 27.60906 13.95875 27.505859 13.78125 C 27.402664 13.60335 27.280496 13.370719 27.152344 13.136719 C 27.024192 12.902819 26.893407 12.669597 26.740234 12.466797 C 26.663644 12.365397 26.582224 12.269241 26.472656 12.181641 C 26.363088 12.093641 26.208343 11.9993 25.990234 12 z M 5.9941406 13.15625 C 6.0789656 13.27965 6.1737538 13.431687 6.2753906 13.617188 C 6.3961026 13.837587 6.5187334 14.073103 6.640625 14.283203 C 6.7625172 14.493303 6.8348937 14.669256 7.0820312 14.847656 C 7.3291693 15.026056 7.5200111 15.040244 7.7578125 15.089844 C 7.9956144 15.139844 8.2586592 15.181362 8.5058594 15.226562 C 8.7141392 15.264563 8.8892673 15.308409 9.0332031 15.349609 C 8.9419831 15.468409 8.8246177 15.605866 8.6796875 15.759766 C 8.5073776 15.942666 8.3223112 16.1316 8.1601562 16.3125 C 7.9980006 16.4933 7.8530482 16.618103 7.7597656 16.908203 C 7.6664836 17.198403 7.7118923 17.3836 7.7382812 17.625 C 7.7646692 17.8665 7.8044493 18.129906 7.8378906 18.378906 C 7.8660466 18.588606 7.8798786 18.768269 7.8847656 18.917969 C 7.7435613 18.867969 7.5780184 18.799284 7.3867188 18.708984 C 7.1595137 18.601584 6.9213277 18.483166 6.6992188 18.384766 C 6.4771092 18.286766 6.3145552 18.1866 6.0097656 18.1875 C 5.7049755 18.1885 5.5418048 18.288972 5.3203125 18.388672 C 5.0988196 18.488672 4.8632511 18.61005 4.6367188 18.71875 C 4.4461823 18.80975 4.2795072 18.878788 4.1386719 18.929688 C 4.1426119 18.779888 4.1528195 18.600625 4.1796875 18.390625 C 4.2115775 18.141325 4.2524597 17.878319 4.2773438 17.636719 C 4.3022278 17.395119 4.345088 17.207569 4.25 16.917969 C 4.154912 16.628469 4.0109351 16.506072 3.8476562 16.326172 C 3.684378 16.146372 3.4957115 15.959244 3.3222656 15.777344 C 3.1762274 15.624244 3.0607129 15.487441 2.96875 15.369141 C 3.1124281 15.326141 3.2860744 15.281187 3.4941406 15.242188 C 3.7410547 15.195187 4.0027454 15.152063 4.2402344 15.101562 C 4.4777233 15.050563 4.6680406 15.033316 4.9140625 14.853516 C 5.1600839 14.673616 5.2329349 14.498009 5.3535156 14.287109 C 5.4740962 14.076309 5.5955066 13.840241 5.7148438 13.619141 C 5.8154049 13.432741 5.9100453 13.28025 5.9941406 13.15625 z M 15.994141 13.15625 C 16.078971 13.27965 16.173754 13.431687 16.275391 13.617188 C 16.396103 13.837587 16.518734 14.073103 16.640625 14.283203 C 16.762518 14.493303 16.834893 14.669256 17.082031 14.847656 C 17.329169 15.026056 17.520011 15.040244 17.757812 15.089844 C 17.995614 15.139844 18.258659 15.181362 18.505859 15.226562 C 18.714139 15.264563 18.889267 15.308409 19.033203 15.349609 C 18.941983 15.468409 18.824618 15.605866 18.679688 15.759766 C 18.507378 15.942666 18.322311 16.1316 18.160156 16.3125 C 17.998 16.4933 17.853049 16.618103 17.759766 16.908203 C 17.666486 17.198403 17.711891 17.3836 17.738281 17.625 C 17.764671 17.8665 17.804453 18.129906 17.837891 18.378906 C 17.866051 18.588606 17.879876 18.768269 17.884766 18.917969 C 17.743562 18.867969 17.578018 18.799284 17.386719 18.708984 C 17.159513 18.601584 16.921328 18.483166 16.699219 18.384766 C 16.477109 18.286766 16.314555 18.1866 16.009766 18.1875 C 15.704976 18.1885 15.541804 18.288972 15.320312 18.388672 C 15.098819 18.488672 14.863251 18.61005 14.636719 18.71875 C 14.446182 18.80975 14.279508 18.878788 14.138672 18.929688 C 14.142572 18.779888 14.152817 18.600625 14.179688 18.390625 C 14.211578 18.141325 14.252464 17.878319 14.277344 17.636719 C 14.302224 17.395119 14.34509 17.207569 14.25 16.917969 C 14.15491 16.628469 14.010935 16.506072 13.847656 16.326172 C 13.684378 16.146372 13.495712 15.959244 13.322266 15.777344 C 13.176228 15.624244 13.060712 15.487441 12.96875 15.369141 C 13.112428 15.326141 13.286075 15.281187 13.494141 15.242188 C 13.741055 15.195187 14.002745 15.152063 14.240234 15.101562 C 14.477723 15.050563 14.668041 15.033316 14.914062 14.853516 C 15.160084 14.673616 15.232936 14.498009 15.353516 14.287109 C 15.474097 14.076309 15.595507 13.840241 15.714844 13.619141 C 15.815405 13.432741 15.910046 13.28025 15.994141 13.15625 z M 25.994141 13.15625 C 26.078971 13.27965 26.173754 13.431687 26.275391 13.617188 C 26.396103 13.837587 26.518734 14.073103 26.640625 14.283203 C 26.762518 14.493303 26.834893 14.669256 27.082031 14.847656 C 27.329169 15.026056 27.520011 15.040244 27.757812 15.089844 C 27.995614 15.139844 28.258659 15.181362 28.505859 15.226562 C 28.714139 15.264563 28.889267 15.308409 29.033203 15.349609 C 28.941983 15.468409 28.824618 15.605866 28.679688 15.759766 C 28.507378 15.942666 28.322311 16.1316 28.160156 16.3125 C 27.998 16.4933 27.853049 16.618103 27.759766 16.908203 C 27.666486 17.198403 27.711891 17.3836 27.738281 17.625 C 27.764671 17.8665 27.804453 18.129906 27.837891 18.378906 C 27.866051 18.588606 27.879876 18.768269 27.884766 18.917969 C 27.743562 18.867969 27.578018 18.799284 27.386719 18.708984 C 27.159513 18.601584 26.921328 18.483166 26.699219 18.384766 C 26.477109 18.286766 26.314555 18.1866 26.009766 18.1875 C 25.704976 18.1885 25.541805 18.288972 25.320312 18.388672 C 25.09882 18.488672 24.863251 18.61005 24.636719 18.71875 C 24.446182 18.80975 24.279508 18.878788 24.138672 18.929688 C 24.142572 18.779888 24.152818 18.600625 24.179688 18.390625 C 24.211578 18.141325 24.252464 17.878319 24.277344 17.636719 C 24.302224 17.395119 24.34508 17.207569 24.25 16.917969 C 24.15491 16.628469 24.010935 16.506072 23.847656 16.326172 C 23.684378 16.146372 23.495712 15.959244 23.322266 15.777344 C 23.176228 15.624244 23.060712 15.487441 22.96875 15.369141 C 23.112428 15.326141 23.286075 15.281187 23.494141 15.242188 C 23.741055 15.195187 24.002745 15.152063 24.240234 15.101562 C 24.477723 15.050563 24.668041 15.033316 24.914062 14.853516 C 25.160083 14.673616 25.232936 14.498009 25.353516 14.287109 C 25.474097 14.076309 25.595507 13.840241 25.714844 13.619141 C 25.815405 13.432741 25.910046 13.28025 25.994141 13.15625 z " color="#000" enable-background="accumulate" font-family="sans-serif" font-weight="400" overflow="visible"/></svg>