<svg xmlns="http://www.w3.org/2000/svg" width="32" height="32" viewBox="0 0 32 32"><path d="m 5.9902344,12 c -0.2181092,7e-4 -0.3734016,0.09735 -0.4824219,0.185547 -0.1090204,0.088 -0.1877187,0.183256 -0.2636719,0.285156 -0.1519076,0.2037 -0.2834637,0.439128 -0.4101562,0.673828 -0.1266918,0.2348 -0.2455695,0.467885 -0.3476563,0.646485 -0.1020861,0.1785 -0.2348535,0.309059 -0.1621093,0.255859 0.072743,-0.053 -0.091905,0.03317 -0.2929688,0.07617 -0.2010629,0.043 -0.4605239,0.08682 -0.7226562,0.136719 -0.2621325,0.05 -0.5254558,0.102547 -0.765625,0.185546 -0.1200847,0.042 -0.2344176,0.08902 -0.3515626,0.166016 -0.1171449,0.077 -0.2555122,0.194644 -0.3222656,0.402344 -0.066753,0.2076 -0.024854,0.384625 0.025391,0.515625 0.050245,0.1309 0.1180074,0.236144 0.1914063,0.339844 0.1467978,0.2074 0.3275826,0.404656 0.5117187,0.597656 0.1841361,0.1931 0.3715306,0.37905 0.5097657,0.53125 0.138235,0.1523 0.221475,0.319975 0.1933593,0.234375 -0.028116,-0.086 0.00153,0.09568 -0.019531,0.300781 -0.021068,0.2045 -0.057942,0.465869 -0.091797,0.730469 -0.033855,0.2647 -0.065287,0.531056 -0.060547,0.785156 0.00237,0.127 0.01166,0.251519 0.048828,0.386719 0.037168,0.1353 0.1063502,0.302087 0.2832031,0.429687 0.1768529,0.1277 0.357974,0.140113 0.4980469,0.132813 0.1400735,-0.01 0.2614956,-0.03622 0.3828125,-0.07422 0.2426331,-0.076 0.4860679,-0.187234 0.7265625,-0.302734 0.2404946,-0.1154 0.4745889,-0.235813 0.6621094,-0.320313 0.1875198,-0.084 0.373324,-0.113581 0.2832031,-0.113281 -0.090121,3e-4 0.093207,0.02793 0.28125,0.111328 0.1880428,0.083 0.4228538,0.200553 0.6640625,0.314453 0.2412093,0.114 0.4854166,0.224828 0.7285156,0.298828 0.1215492,0.037 0.2426966,0.06722 0.3828125,0.07422 0.1401165,0.01 0.3219919,-0.0097 0.4980469,-0.134766 0.1760544,-0.128799 0.2429719,-0.298093 0.2792968,-0.433593 0.036325,-0.1355 0.045296,-0.259619 0.046875,-0.386719 0.00316,-0.2541 -0.028951,-0.520656 -0.064453,-0.785156 -0.035502,-0.2644 -0.075315,-0.524116 -0.097656,-0.728516 -0.022341,-0.2045 0.00609,-0.388534 -0.021484,-0.302734 -0.027582,0.086 0.056076,-0.08168 0.1933594,-0.234375 0.1372839,-0.1531 0.3229297,-0.340956 0.5058593,-0.535157 0.1829304,-0.194199 0.3623095,-0.391209 0.5078126,-0.599609 0.072752,-0.1041 0.1380722,-0.210497 0.1875002,-0.341797 0.04943,-0.1313 0.09344,-0.308425 0.02539,-0.515625 -0.06805,-0.2073 -0.2085481,-0.32399 -0.3261715,-0.40039 -0.1176233,-0.076 -0.2312219,-0.123263 -0.3515625,-0.164063 -0.2406819,-0.082 -0.5051416,-0.131687 -0.7675781,-0.179687 -0.2624359,-0.048 -0.5213285,-0.09141 -0.7226563,-0.132813 -0.2013278,-0.042 -0.3660432,-0.127019 -0.2929687,-0.07422 0.073074,0.053 -0.060866,-0.07836 -0.1640625,-0.255859 C 7.4026636,13.60335 7.2804956,13.370719 7.1523438,13.136719 7.0241919,12.902819 6.8934075,12.669597 6.7402344,12.466797 6.6636474,12.365397 6.5822245,12.269241 6.4726562,12.181641 6.3630885,12.093641 6.208343,11.9993 5.9902344,12 Z m 9.9999996,0 c -0.218109,7e-4 -0.373401,0.09735 -0.482422,0.185547 -0.109019,0.088 -0.187718,0.183256 -0.263671,0.285156 -0.151908,0.2037 -0.283464,0.439128 -0.410157,0.673828 -0.126691,0.2348 -0.245569,0.467885 -0.347656,0.646485 -0.102086,0.1785 -0.234853,0.309059 -0.162109,0.255859 0.07274,-0.053 -0.0919,0.03317 -0.292969,0.07617 -0.201063,0.043 -0.460524,0.08682 -0.722656,0.136719 -0.262133,0.05 -0.525456,0.102547 -0.765625,0.185546 -0.120085,0.042 -0.234418,0.08902 -0.351563,0.166016 -0.117145,0.077 -0.255511,0.194644 -0.322265,0.402344 -0.06675,0.2076 -0.02486,0.384625 0.02539,0.515625 0.05025,0.1309 0.118008,0.236144 0.191407,0.339844 0.146798,0.2074 0.327582,0.404656 0.511718,0.597656 0.184136,0.1931 0.371531,0.37905 0.509766,0.53125 0.138235,0.1523 0.221474,0.319975 0.193359,0.234375 -0.02812,-0.086 0.0016,0.09568 -0.01953,0.300781 -0.02107,0.2045 -0.05794,0.465869 -0.0918,0.730469 -0.03386,0.2647 -0.06529,0.531056 -0.06055,0.785156 0.0024,0.127 0.01166,0.251519 0.04883,0.386719 0.03717,0.1353 0.106351,0.302087 0.283204,0.429687 0.176852,0.1277 0.357973,0.140113 0.498046,0.132813 0.140074,-0.01 0.261496,-0.03622 0.382813,-0.07422 0.242633,-0.076 0.486068,-0.187234 0.726562,-0.302734 0.240495,-0.1154 0.474589,-0.235813 0.66211,-0.320313 0.187519,-0.084 0.373324,-0.113581 0.283203,-0.113281 -0.09012,3e-4 0.09321,0.02793 0.28125,0.111328 0.188043,0.083 0.422853,0.200553 0.664062,0.314453 0.241209,0.114 0.485417,0.224828 0.728516,0.298828 0.121549,0.037 0.242696,0.06722 0.382812,0.07422 0.140116,0.01 0.321992,-0.0097 0.498047,-0.134766 0.176054,-0.128799 0.242972,-0.298093 0.279297,-0.433593 0.03632,-0.1355 0.04529,-0.259619 0.04687,-0.386719 0.0032,-0.2541 -0.02895,-0.520656 -0.06445,-0.785156 -0.0355,-0.2644 -0.07532,-0.524116 -0.09766,-0.728516 -0.02234,-0.2045 0.0061,-0.388534 -0.02148,-0.302734 -0.02758,0.086 0.05608,-0.08168 0.193359,-0.234375 0.137284,-0.1531 0.322929,-0.340956 0.505859,-0.535157 0.18293,-0.194199 0.36231,-0.391209 0.507813,-0.599609 0.07275,-0.1041 0.138072,-0.210497 0.1875,-0.341797 0.04943,-0.1313 0.09344,-0.308425 0.02539,-0.515625 -0.06805,-0.2073 -0.208549,-0.32399 -0.326171,-0.40039 -0.117623,-0.076 -0.231222,-0.123263 -0.351563,-0.164063 -0.240682,-0.082 -0.505141,-0.131687 -0.767578,-0.179687 -0.262436,-0.048 -0.521328,-0.09141 -0.722656,-0.132813 -0.201328,-0.042 -0.366044,-0.127019 -0.292969,-0.07422 0.07307,0.053 -0.06086,-0.07836 -0.164063,-0.255859 -0.103195,-0.1779 -0.225363,-0.410531 -0.353515,-0.644531 -0.128152,-0.2339 -0.258937,-0.467122 -0.41211,-0.669922 -0.07659,-0.1014 -0.15801,-0.197556 -0.267578,-0.285156 C 16.363088,12.093641 16.208343,11.9993 15.990234,12 Z m 10,0 c -0.218109,7e-4 -0.373401,0.09735 -0.482422,0.185547 -0.10902,0.088 -0.187718,0.183256 -0.263671,0.285156 -0.151908,0.2037 -0.283464,0.439128 -0.410157,0.673828 -0.126691,0.2348 -0.245569,0.467885 -0.347656,0.646485 -0.102086,0.1785 -0.234853,0.309059 -0.162109,0.255859 0.07274,-0.053 -0.09191,0.03317 -0.292969,0.07617 -0.201063,0.043 -0.460524,0.08682 -0.722656,0.136719 -0.262133,0.05 -0.525456,0.102547 -0.765625,0.185546 -0.120085,0.042 -0.234418,0.08902 -0.351563,0.166016 -0.117145,0.077 -0.255511,0.194644 -0.322265,0.402344 -0.06675,0.2076 -0.02486,0.384625 0.02539,0.515625 0.05025,0.1309 0.118007,0.236144 0.191407,0.339844 0.146798,0.2074 0.327582,0.404656 0.511718,0.597656 0.184136,0.1931 0.371531,0.37905 0.509766,0.53125 0.138235,0.1523 0.221474,0.319975 0.193359,0.234375 -0.02812,-0.086 0.0016,0.09568 -0.01953,0.300781 -0.02107,0.2045 -0.05794,0.465869 -0.0918,0.730469 -0.03385,0.2647 -0.06529,0.531056 -0.06055,0.785156 0.0024,0.127 0.01166,0.251519 0.04883,0.386719 0.03717,0.1353 0.10635,0.302087 0.283204,0.429687 0.176853,0.1277 0.357973,0.140113 0.498046,0.132813 0.140074,-0.01 0.261496,-0.03622 0.382813,-0.07422 0.242633,-0.076 0.486068,-0.187234 0.726562,-0.302734 0.240495,-0.1154 0.474589,-0.235813 0.66211,-0.320313 0.187519,-0.084 0.373324,-0.113581 0.283203,-0.113281 -0.09012,3e-4 0.09321,0.02793 0.28125,0.111328 0.188043,0.083 0.422853,0.200553 0.664062,0.314453 0.241209,0.114 0.485417,0.224828 0.728516,0.298828 0.121549,0.037 0.242696,0.06722 0.382812,0.07422 0.140116,0.01 0.321992,-0.0097 0.498047,-0.134766 0.176054,-0.128799 0.242972,-0.298093 0.279297,-0.433593 0.03632,-0.1355 0.04529,-0.259619 0.04687,-0.386719 0.0032,-0.2541 -0.02895,-0.520656 -0.06445,-0.785156 -0.0355,-0.2644 -0.07532,-0.524116 -0.09766,-0.728516 -0.02234,-0.2045 0.0061,-0.388534 -0.02148,-0.302734 -0.02758,0.086 0.05608,-0.08168 0.193359,-0.234375 0.137284,-0.1531 0.322929,-0.340956 0.505859,-0.535157 0.18293,-0.194199 0.36231,-0.391209 0.507813,-0.599609 0.07275,-0.1041 0.138072,-0.210497 0.1875,-0.341797 0.04943,-0.1313 0.09344,-0.308425 0.02539,-0.515625 -0.06805,-0.2073 -0.208548,-0.32399 -0.326171,-0.40039 -0.117623,-0.076 -0.231222,-0.123263 -0.351563,-0.164063 -0.240682,-0.082 -0.505141,-0.131687 -0.767578,-0.179687 -0.262436,-0.048 -0.521328,-0.09141 -0.722656,-0.132813 -0.201328,-0.042 -0.366044,-0.127019 -0.292969,-0.07422 0.07307,0.053 -0.06086,-0.07836 -0.164063,-0.255859 -0.103195,-0.1779 -0.225363,-0.410531 -0.353515,-0.644531 -0.128152,-0.2339 -0.258937,-0.467122 -0.41211,-0.669922 -0.07659,-0.1014 -0.15801,-0.197556 -0.267578,-0.285156 C 26.363088,12.093641 26.208343,11.9993 25.990234,12 Z" color="#000" font-family="sans-serif" font-weight="400" overflow="visible" style="line-height:normal;text-indent:0;text-align:start;text-decoration-line:none;text-decoration-style:solid;text-decoration-color:#000;text-transform:none;block-progression:tb;isolation:auto;mix-blend-mode:normal"/></svg>